<?xml version="1.0" standalone="no"?>
<!DOCTYPE svg PUBLIC "-//W3C//DTD SVG 20010904//EN"
 "http://www.w3.org/TR/2001/REC-SVG-20010904/DTD/svg10.dtd">
<svg version="1.0" xmlns="http://www.w3.org/2000/svg"
 width="512.000000pt" height="512.000000pt" viewBox="0 0 512.000000 512.000000"
 preserveAspectRatio="xMidYMid meet">
<metadata>
Created by potrace 1.11, written by Peter Selinger 2001-2013
</metadata>
<g transform="translate(0.000000,512.000000) scale(0.100000,-0.100000)"
fill="#000000" stroke="none">
<path d="M4205 5096 c-61 -19 -80 -34 -153 -120 -36 -43 -71 -84 -77 -90 -5
-6 -48 -56 -95 -111 -47 -55 -90 -104 -96 -110 -5 -5 -35 -39 -65 -75 -29 -36
-56 -67 -59 -70 -3 -3 -73 -84 -155 -180 -83 -96 -152 -177 -155 -180 -3 -3
-57 -66 -120 -140 -63 -74 -123 -144 -133 -155 -11 -11 -23 -31 -28 -44 -19
-48 27 -105 77 -96 11 2 22 4 26 4 3 1 69 74 145 162 76 89 143 167 148 173 6
6 55 63 109 126 54 63 111 129 125 145 14 17 80 93 146 170 66 77 125 145 130
151 6 6 30 35 55 64 25 29 57 67 72 84 15 17 47 54 70 83 39 47 60 63 95 69 6
1 25 -8 42 -19 61 -44 650 -552 650 -562 0 -5 -21 -35 -48 -65 l-49 -54 -73
64 c-41 35 -78 69 -84 74 -39 42 -200 169 -227 180 -41 16 -88 13 -122 -9 -27
-18 -122 -123 -151 -168 -21 -33 -22 -95 -1 -136 9 -16 46 -55 83 -87 38 -32
67 -62 65 -67 -4 -14 -86 -107 -94 -107 -4 0 -33 22 -65 48 -87 72 -110 85
-151 84 -62 -3 -88 -21 -169 -116 -43 -50 -80 -93 -83 -96 -3 -3 -43 -50 -90
-105 -47 -55 -87 -102 -90 -105 -3 -3 -62 -70 -130 -150 -69 -80 -134 -156
-146 -170 -12 -14 -97 -113 -189 -220 -92 -107 -189 -220 -215 -250 -26 -30
-123 -143 -215 -250 -91 -107 -179 -208 -194 -225 -72 -78 -79 -117 -43 -220
41 -119 44 -271 7 -378 -43 -124 10 -192 142 -184 37 3 79 0 94 -5 51 -18 73
-77 48 -131 -16 -35 -43 -47 -123 -56 -79 -9 -117 -28 -134 -67 -18 -39 -14
-69 17 -136 49 -104 64 -180 58 -288 -7 -128 -40 -219 -115 -319 -145 -193
-391 -270 -639 -201 -71 20 -86 21 -113 10 -55 -23 -71 -58 -68 -152 2 -96 -9
-124 -56 -143 -38 -16 -72 -10 -103 18 -23 20 -29 42 -37 129 -5 55 -18 83
-50 103 -44 29 -73 27 -158 -11 -323 -146 -669 -5 -795 324 -38 98 -41 256 -8
365 21 68 23 83 12 114 -21 62 -52 76 -163 77 -88 1 -97 3 -115 25 -40 50 -37
107 9 140 26 18 77 29 145 30 19 1 41 13 63 35 40 40 45 85 15 144 -64 126
-84 264 -57 392 42 203 188 367 384 435 97 33 223 37 325 9 98 -27 127 -28
162 -10 50 27 59 51 57 149 -2 85 -1 89 27 118 42 41 92 40 132 -2 16 -17 29
-43 30 -58 1 -14 2 -39 4 -56 1 -16 3 -38 4 -49 0 -10 16 -33 35 -52 44 -44
76 -44 175 0 125 56 223 66 403 40 84 -12 102 -1 213 130 28 33 55 64 60 70 6
6 64 74 130 151 66 77 124 145 130 151 63 66 342 401 349 420 14 35 -3 75 -40
90 -43 18 -64 4 -142 -86 -36 -41 -77 -89 -91 -105 -47 -54 -145 -169 -167
-195 -19 -21 -168 -195 -349 -405 -27 -32 -53 -62 -56 -67 -4 -7 -24 -6 -55 1
-111 24 -335 0 -415 -44 -30 -17 -39 -12 -39 24 0 33 -35 109 -63 140 -66 71
-187 102 -270 68 -95 -40 -158 -130 -159 -228 l0 -51 -36 7 c-261 51 -488 -10
-667 -177 -217 -203 -291 -512 -187 -786 11 -28 17 -53 14 -56 -3 -4 -17 -6
-31 -6 -43 0 -125 -45 -162 -89 -77 -89 -78 -222 -2 -311 46 -53 99 -79 176
-87 l63 -6 -13 -61 c-49 -234 37 -507 211 -670 215 -202 506 -253 798 -141 14
5 18 2 18 -14 0 -42 41 -128 77 -163 72 -68 153 -89 243 -62 95 28 170 129
173 234 2 49 3 51 26 45 107 -27 267 -27 366 0 273 73 480 294 532 567 26 137
5 331 -46 426 -6 12 -8 22 -4 23 80 7 127 27 177 75 134 130 84 347 -94 407
-25 8 -63 14 -84 13 l-38 -1 6 35 c3 19 9 49 12 65 17 84 6 226 -27 330 -23
74 -26 65 56 160 73 84 96 111 305 355 73 85 145 169 161 187 16 18 57 65 91
105 34 40 65 75 68 78 3 3 27 32 55 65 27 33 52 62 55 65 3 3 46 52 95 110 50
58 92 107 95 110 3 3 30 34 60 70 30 36 69 81 86 100 17 19 64 73 104 120 39
47 97 113 127 148 l56 62 63 -55 c76 -67 108 -85 154 -85 50 0 89 28 165 117
74 86 85 107 85 161 0 50 -25 87 -103 152 -72 60 -72 58 -12 123 l35 39 107
-93 c60 -50 134 -115 167 -143 78 -68 106 -85 147 -90 48 -6 88 14 141 70 116
122 142 177 118 248 -11 34 -29 53 -145 151 -33 28 -78 66 -100 86 -163 146
-486 414 -512 425 -47 20 -103 24 -148 10z"/>
<path d="M1880 2459 c-221 -30 -378 -207 -381 -431 -6 -372 434 -578 721 -338
173 145 203 416 65 597 -46 60 -49 64 -102 101 -43 30 -148 68 -203 74 -25 2
-70 1 -100 -3z m187 -178 c170 -87 208 -323 74 -458 -138 -139 -370 -103 -464
72 -31 58 -31 202 0 261 24 44 85 104 132 128 71 37 184 36 258 -3z"/>
<path d="M802 2369 c-216 -61 -351 -272 -314 -491 38 -222 220 -373 442 -367
356 10 548 404 340 699 -98 141 -296 208 -468 159z m231 -157 c205 -91 235
-371 53 -499 -141 -100 -338 -54 -420 97 -35 65 -44 164 -20 234 18 52 82 129
128 153 84 44 180 50 259 15z"/>
<path d="M1945 1444 c-153 -34 -263 -115 -325 -240 -43 -87 -40 -133 9 -158
18 -9 36 -10 57 -5 26 7 36 19 54 64 50 122 146 189 275 189 85 0 143 -23 202
-82 139 -138 94 -384 -85 -464 -107 -48 -235 -23 -328 62 -50 46 -92 52 -124
20 -36 -36 -27 -81 26 -134 94 -93 239 -140 373 -119 271 42 436 318 346 578
-27 76 -53 115 -116 176 -92 87 -254 138 -364 113z"/>
<path d="M885 1356 c-232 -57 -373 -303 -310 -539 19 -72 33 -100 83 -164 149
-188 443 -213 626 -52 191 168 200 465 20 642 -49 49 -120 91 -186 111 -57 17
-170 18 -233 2z m202 -151 c32 -10 69 -32 101 -60 189 -170 79 -486 -173 -499
-162 -9 -290 101 -303 261 -6 82 12 143 60 204 75 95 193 130 315 94z"/>
</g>
</svg>
