<svg width="29" height="422" viewBox="0 0 29 422" fill="none" xmlns="http://www.w3.org/2000/svg">
<path d="M21.9733 0C23.0779 0 23.9733 0.895431 23.9733 2V103.683L23.9733 207.365L29 277.295L23.9733 350.167L23.0491 418.377C23.0278 419.951 21.281 420.885 19.9606 420.028L12.8163 415.392C12.301 415.058 11.9679 414.505 11.9129 413.893L6.18667 350.167L0.0146644 277.467C0.00490551 277.352 0.00511005 277.237 0.0152764 277.122L6.18667 207.365L6.18667 103.683V2C6.18667 0.895426 7.0821 0 8.18666 0L21.9733 0Z" fill="url(#paint0_linear)"/>
<defs>
<linearGradient id="paint0_linear" x1="26" y1="211" x2="-3" y2="211" gradientUnits="userSpaceOnUse">
<stop stop-color="#262525"/>
<stop offset="1" stop-color="#998A8A"/>
</linearGradient>
</defs>
</svg>
