<!DOCTYPE svg PUBLIC "-//W3C//DTD SVG 20010904//EN" "http://www.w3.org/TR/2001/REC-SVG-20010904/DTD/svg10.dtd">
<svg version="1.0" xmlns="http://www.w3.org/2000/svg" width="496px" height="218px" viewBox="0 0 4960 2180" preserveAspectRatio="xMidYMid meet">
<g id="layer101" fill="#393836" stroke="none">
<path d="M27 2134 c-4 -4 -7 -42 -7 -85 0 -68 2 -77 20 -82 20 -5 20 -14 20 -881 0 -869 0 -876 -20 -876 -18 0 -20 -7 -20 -80 l0 -80 80 0 c64 0 80 3 80 15 0 13 262 15 2295 15 2033 0 2295 -2 2295 -15 0 -12 16 -15 80 -15 l80 0 0 80 c0 73 -2 80 -20 80 -20 0 -20 7 -20 876 0 867 0 876 20 881 18 5 20 14 20 84 0 43 -3 79 -7 81 -5 2 -39 2 -77 0 -57 -3 -69 -7 -73 -23 -5 -19 -50 -19 -2298 -19 -2284 0 -2293 0 -2298 20 -4 17 -14 20 -60 20 -31 0 -62 2 -69 5 -8 3 -17 2 -21 -1z m85 -94 c-2 -33 -8 -60 -14 -60 -5 0 -7 12 -3 30 6 25 3 30 -12 30 -12 0 -24 -11 -30 -27 -10 -26 -11 -24 -12 23 -1 28 1 53 4 55 2 3 19 6 37 7 l33 2 -3 -60z m44 -8 c-12 -11 -16 6 -9 39 l8 34 3 -33 c2 -19 1 -36 -2 -40z m4653 11 c1 -7 -3 -13 -9 -13 -5 0 -10 17 -9 38 1 33 2 34 9 12 4 -14 8 -31 9 -37z m98 -3 c1 -50 0 -52 -10 -27 -6 16 -19 27 -30 27 -15 0 -18 -5 -12 -30 4 -18 2 -30 -3 -30 -6 0 -12 27 -14 60 l-3 61 35 -3 35 -4 2 -54z m-147 5 c0 -11 -12 -15 -45 -15 -25 0 -45 -3 -45 -6 0 -13 51 -92 72 -110 13 -12 40 -31 61 -43 l37 -23 0 51 c0 38 -4 51 -14 51 -8 0 -16 -12 -18 -26 l-3 -26 -27 21 c-15 12 -37 35 -48 51 l-21 30 24 0 c19 0 24 -5 23 -22 -1 -20 3 -22 52 -19 l52 2 0 -876 0 -877 -52 4 c-49 3 -53 1 -52 -20 0 -17 -5 -22 -23 -22 l-24 0 21 30 c11 16 33 39 48 51 l27 21 3 -26 c2 -14 10 -26 18 -26 10 0 14 13 14 50 0 49 -1 50 -22 39 -48 -25 -88 -62 -117 -108 -17 -26 -31 -51 -31 -54 0 -4 22 -7 50 -7 40 0 48 -3 44 -15 -5 -13 -269 -15 -2289 -15 -2020 0 -2284 2 -2289 15 -4 12 4 15 44 15 28 0 50 3 50 7 0 3 -14 28 -31 54 -29 46 -69 83 -117 108 -21 11 -22 10 -22 -39 0 -37 4 -50 14 -50 8 0 16 12 18 26 l3 26 27 -21 c15 -12 37 -35 48 -51 l21 -30 -24 0 c-18 0 -23 5 -23 23 1 20 -3 22 -51 19 l-53 -4 0 877 0 876 53 -2 c48 -3 52 -1 51 19 -1 17 4 22 23 22 l24 0 -21 -30 c-11 -16 -33 -39 -48 -51 l-27 -21 -3 26 c-2 14 -10 26 -18 26 -10 0 -14 -13 -14 -51 l0 -51 38 23 c20 12 47 31 60 43 21 18 72 97 72 110 0 3 -20 6 -45 6 -33 0 -45 4 -45 15 0 13 261 15 2285 15 2024 0 2285 -2 2285 -15z m-4595 -55 c-3 -5 -13 -10 -21 -10 -8 0 -12 5 -9 10 3 6 13 10 21 10 8 0 12 -4 9 -10z m4650 0 c3 -5 -1 -10 -9 -10 -8 0 -18 5 -21 10 -3 6 1 10 9 10 8 0 18 -4 21 -10z m-4729 -1857 c21 4 24 1 24 -24 0 -19 5 -29 15 -29 10 0 15 11 15 35 0 25 4 33 14 29 9 -4 11 -15 7 -37 -7 -31 -8 -32 -64 -35 l-57 -3 0 54 c0 60 13 87 18 37 3 -28 7 -31 28 -27z m24 42 c0 -8 -4 -15 -10 -15 -5 0 -10 7 -10 15 0 8 5 15 10 15 6 0 10 -7 10 -15z m50 5 c0 -5 -4 -10 -10 -10 -5 0 -10 5 -10 10 0 6 5 10 10 10 6 0 10 -4 10 -10z m4650 0 c0 -5 -4 -10 -10 -10 -5 0 -10 5 -10 10 0 6 5 10 10 10 6 0 10 -4 10 -10z m50 -5 c0 -8 -4 -15 -10 -15 -5 0 -10 7 -10 15 0 8 5 15 10 15 6 0 10 -7 10 -15z m50 -51 l0 -55 -57 3 c-56 3 -57 4 -64 35 -4 22 -2 33 7 37 10 4 14 -4 14 -29 0 -24 5 -35 15 -35 10 0 15 10 15 29 0 25 3 28 25 23 22 -4 25 -1 25 27 0 19 4 30 10 26 6 -3 10 -31 10 -61z"/>
<path d="M28 33 c7 -3 16 -2 19 1 4 3 -2 6 -13 5 -11 0 -14 -3 -6 -6z"/>
<path d="M4908 33 c7 -3 16 -2 19 1 4 3 -2 6 -13 5 -11 0 -14 -3 -6 -6z"/>
</g>
<g id="layer102" fill="#413d3c" stroke="none">
<path d="M20 2046 c0 -65 2 -74 20 -79 20 -5 20 -14 20 -916 0 -514 4 -911 9 -911 5 0 11 14 15 30 5 25 10 30 35 30 16 0 33 -4 36 -10 11 -18 47 -12 43 8 -3 14 -12 16 -54 14 l-51 -4 -6 74 c-4 40 -6 451 -6 912 -1 461 -3 841 -6 844 -9 9 -17 -6 -17 -33 0 -14 -4 -25 -9 -25 -5 0 -9 27 -9 60 l0 60 60 0 60 0 0 -30 c0 -16 5 -30 10 -30 6 0 10 6 10 13 0 9 466 12 2295 12 1829 0 2295 -3 2295 -12 0 -7 5 -13 10 -13 6 0 10 14 10 30 l0 30 60 0 60 0 0 -60 c0 -33 -4 -60 -9 -60 -5 0 -8 11 -8 25 0 27 -9 42 -18 33 -3 -3 -5 -383 -6 -844 0 -461 -2 -872 -6 -912 l-6 -74 -51 4 c-42 2 -51 0 -54 -14 -4 -20 32 -26 43 -8 3 5 20 10 36 10 25 0 30 -5 36 -30 3 -16 9 -30 14 -30 5 0 9 397 9 911 0 902 0 911 20 916 18 5 20 14 20 79 l0 74 -80 0 c-62 0 -80 -3 -80 -14 0 -8 -12 -17 -27 -20 -16 -3 -1036 -5 -2268 -5 -1232 0 -2252 2 -2267 5 -16 3 -28 12 -28 20 0 11 -18 14 -80 14 l-80 0 0 -74z"/>
<path d="M110 2039 c0 -51 0 -51 28 -43 36 10 102 12 102 4 0 -4 -10 -20 -22 -36 -48 -62 -92 -83 -86 -42 2 11 -3 23 -9 25 -9 3 -13 -9 -13 -41 0 -49 16 -60 40 -31 7 8 16 15 20 15 15 0 64 56 89 99 l23 43 -63 -3 c-44 -2 -68 -7 -76 -18 -11 -14 -12 -11 -10 14 2 17 6 36 10 42 8 12 -1 23 -20 23 -9 0 -13 -15 -13 -51z"/>
<path d="M4807 2084 c-4 -4 -3 -12 0 -17 4 -6 8 -25 10 -42 2 -25 1 -28 -10 -14 -8 11 -32 16 -76 18 l-63 3 23 -43 c25 -43 74 -99 89 -99 4 0 13 -7 20 -15 24 -29 40 -18 40 31 0 32 -4 44 -12 41 -7 -2 -12 -14 -10 -25 6 -41 -38 -20 -86 42 -12 16 -22 32 -22 36 0 8 66 6 103 -4 27 -8 27 -8 27 43 0 36 -4 51 -13 51 -8 0 -17 -3 -20 -6z"/>
<path d="M110 271 c0 -22 5 -43 10 -46 6 -3 10 4 10 18 0 44 12 42 63 -10 28 -27 47 -51 47 -58 0 -3 -20 -5 -45 -5 -54 0 -61 -19 -7 -21 20 -1 47 -3 60 -4 12 -1 22 2 22 8 0 33 -96 138 -138 151 -20 7 -22 4 -22 -33z"/>
<path d="M4810 303 c-38 -16 -130 -121 -130 -150 0 -6 10 -9 23 -8 12 1 39 3 60 4 53 2 46 21 -8 21 -25 0 -45 2 -45 5 0 7 19 31 47 58 51 52 63 54 63 10 0 -14 4 -21 10 -18 11 7 14 85 3 84 -5 0 -15 -3 -23 -6z"/>
<path d="M20 130 l0 -80 80 0 c64 0 80 3 80 15 0 13 262 15 2295 15 2033 0 2295 -2 2295 -15 0 -12 16 -15 80 -15 l80 0 0 80 c0 61 -3 80 -14 80 -10 0 -12 -15 -8 -71 l5 -70 -59 3 c-56 3 -59 4 -62 31 -3 27 -22 39 -22 13 0 -12 -325 -14 -2295 -14 -1971 0 -2295 2 -2295 14 0 26 -19 14 -22 -13 -3 -27 -6 -28 -62 -31 l-59 -3 5 70 c4 56 2 71 -8 71 -11 0 -14 -19 -14 -80z"/>
<path d="M107 170 c-9 -11 -12 -22 -7 -25 6 -4 10 -19 10 -36 0 -19 5 -29 14 -29 11 0 14 12 12 50 -4 60 -7 65 -29 40z"/>
<path d="M4819 189 c0 -2 -2 -28 -4 -56 -3 -41 -1 -53 11 -53 9 0 14 10 14 28 0 15 4 32 9 38 5 5 1 17 -10 28 -11 11 -19 18 -20 15z"/>
</g>
<g id="layer103" fill="#434240" stroke="none">
<path d="M20 2046 c0 -65 2 -74 20 -79 20 -5 20 -14 20 -916 0 -601 3 -911 10 -911 7 0 10 323 10 950 0 627 -3 950 -10 950 -10 0 -14 -21 -11 -47 1 -7 -3 -13 -9 -13 -6 0 -10 25 -10 60 l0 60 60 0 60 0 0 -30 c0 -16 5 -30 10 -30 6 0 10 6 10 13 0 9 466 12 2295 12 1829 0 2295 -3 2295 -12 0 -7 5 -13 10 -13 6 0 10 14 10 30 l0 30 60 0 60 0 0 -60 c0 -35 -4 -60 -10 -60 -6 0 -10 6 -9 13 3 26 -1 47 -11 47 -7 0 -10 -323 -10 -950 0 -627 3 -950 10 -950 7 0 10 310 10 911 0 902 0 911 20 916 18 5 20 14 20 79 l0 74 -80 0 c-62 0 -80 -3 -80 -14 0 -8 -7 -17 -16 -20 -20 -8 -4538 -8 -4558 0 -9 3 -16 12 -16 20 0 11 -18 14 -80 14 l-80 0 0 -74z"/>
<path d="M110 2040 c0 -27 5 -50 10 -50 9 0 15 30 11 54 -1 4 3 14 9 20 11 14 4 26 -17 26 -9 0 -13 -15 -13 -50z"/>
<path d="M4807 2083 c-4 -3 -2 -12 3 -19 6 -6 10 -16 9 -20 -4 -24 2 -54 11 -54 6 0 10 23 10 50 0 35 -4 50 -13 50 -8 0 -17 -3 -20 -7z"/>
<path d="M146 2015 c-2 -6 15 -9 45 -7 55 4 59 -3 27 -44 -48 -62 -92 -83 -86 -42 2 11 -3 23 -9 25 -9 3 -13 -9 -13 -41 0 -34 4 -46 15 -46 8 0 15 4 15 9 0 5 9 12 20 16 36 12 110 101 110 135 0 14 -118 10 -124 -5z"/>
<path d="M4680 2020 c0 -34 74 -123 110 -135 11 -4 20 -11 20 -16 0 -5 7 -9 15 -9 11 0 15 12 15 46 0 32 -4 44 -12 41 -7 -2 -12 -14 -10 -25 6 -41 -38 -20 -86 42 -32 41 -28 48 27 44 30 -2 47 1 45 7 -6 15 -124 19 -124 5z"/>
<path d="M170 1990 c0 -6 -16 -10 -35 -10 -19 0 -35 -4 -35 -10 0 -5 18 -10 40 -10 22 0 43 -1 47 -2 3 -2 7 5 9 14 1 9 -4 19 -12 22 -8 3 -14 1 -14 -4z"/>
<path d="M4765 1992 c-12 -8 -14 -32 -2 -32 4 0 25 0 47 0 22 0 40 5 40 10 0 6 -15 10 -34 10 -19 0 -36 4 -38 10 -1 5 -8 6 -13 2z"/>
<path d="M110 271 c0 -23 5 -41 10 -41 6 0 10 8 10 18 0 38 14 35 63 -15 59 -58 58 -68 -4 -68 -50 0 -52 -15 -1 -16 20 -1 47 -3 60 -4 12 -1 22 2 22 8 0 33 -96 138 -138 151 -20 7 -22 4 -22 -33z"/>
<path d="M4810 303 c-38 -16 -130 -121 -130 -150 0 -6 10 -9 23 -8 12 1 39 3 60 4 50 1 48 16 -2 16 -62 0 -63 10 -4 68 49 50 63 53 63 15 0 -10 5 -18 10 -18 6 0 10 18 10 40 0 40 -3 43 -30 33z"/>
<path d="M130 210 c-38 -6 -40 -7 -13 -8 17 -1 35 -6 38 -12 11 -17 47 -12 43 7 -4 20 -11 22 -68 13z"/>
<path d="M4755 212 c-3 -3 -5 -11 -5 -19 0 -15 36 -18 45 -3 3 6 20 10 37 10 17 0 29 2 27 4 -7 6 -98 14 -104 8z"/>
<path d="M20 130 l0 -80 80 0 c64 0 80 3 80 15 0 13 262 15 2295 15 2033 0 2295 -2 2295 -15 0 -12 16 -15 80 -15 l80 0 0 80 c0 61 -3 80 -14 80 -10 0 -12 -15 -8 -71 l5 -70 -59 3 c-56 3 -59 4 -62 31 -3 28 -22 39 -22 12 0 -13 -262 -15 -2295 -15 -2033 0 -2295 2 -2295 15 0 27 -19 16 -22 -12 -3 -27 -6 -28 -62 -31 l-59 -3 5 70 c4 56 2 71 -8 71 -11 0 -14 -19 -14 -80z"/>
<path d="M107 170 c-9 -11 -12 -22 -7 -25 6 -4 10 -19 10 -36 0 -18 5 -29 14 -29 10 0 13 13 11 51 -4 61 -6 64 -28 39z"/>
<path d="M4820 189 c-8 -78 -6 -109 6 -109 9 0 14 11 14 28 0 15 4 32 9 38 5 5 1 17 -10 28 -11 11 -19 18 -19 15z"/>
</g>
<g id="layer104" fill="#62615f" stroke="none">
<path d="M20 2045 c0 -53 4 -75 13 -75 9 0 11 18 9 64 l-4 63 46 6 c60 9 76 1 76 -34 0 -34 15 -38 25 -6 4 13 8 17 11 10 5 -10 474 -13 2279 -13 1805 0 2274 3 2279 13 3 7 7 3 11 -10 10 -32 25 -28 25 6 0 35 16 43 76 34 l46 -6 -4 -63 c-2 -46 0 -64 10 -64 8 0 12 22 12 75 l0 75 -73 0 c-60 0 -75 -3 -90 -20 -17 -20 -29 -20 -2292 -20 -2263 0 -2275 0 -2292 20 -15 17 -30 20 -90 20 l-73 0 0 -75z"/>
<path d="M110 2040 c0 -27 5 -50 10 -50 6 0 10 18 10 40 0 22 5 40 11 40 5 0 7 5 4 10 -3 6 -13 10 -21 10 -10 0 -14 -13 -14 -50z"/>
<path d="M4805 2080 c-3 -5 -1 -10 4 -10 6 0 11 -18 11 -40 0 -22 5 -40 10 -40 6 0 10 23 10 50 0 37 -4 50 -14 50 -8 0 -18 -4 -21 -10z"/>
<path d="M59 2023 c-1 -10 -1 -22 0 -26 1 -5 1 -424 1 -933 0 -615 3 -924 10 -924 7 0 10 317 10 950 0 627 -3 950 -10 950 -5 0 -11 -8 -11 -17z"/>
<path d="M4870 1090 c0 -633 3 -950 10 -950 7 0 10 309 10 924 0 509 0 928 1 933 4 21 -2 43 -11 43 -7 0 -10 -323 -10 -950z"/>
<path d="M147 2013 c-3 -5 17 -6 44 -5 40 3 49 1 49 -12 0 -17 -85 -106 -101 -106 -5 0 -9 14 -9 31 0 17 -4 28 -10 24 -5 -3 -10 -24 -10 -46 0 -42 10 -46 44 -17 10 10 22 16 25 15 6 -3 60 50 60 58 1 3 8 19 16 35 l16 30 -60 0 c-33 0 -62 -3 -64 -7z"/>
<path d="M4695 1990 c8 -16 15 -32 16 -35 0 -8 54 -61 60 -58 3 1 15 -5 25 -15 34 -29 44 -25 44 17 0 22 -4 43 -10 46 -6 4 -10 -7 -10 -24 0 -17 -4 -31 -9 -31 -16 0 -101 89 -101 106 0 13 9 15 49 12 27 -1 47 0 44 5 -2 4 -31 7 -64 7 l-60 0 16 -30z"/>
<path d="M135 1975 l-40 -13 51 -1 c39 -1 51 3 51 14 0 18 -8 17 -62 0z"/>
<path d="M4753 1975 c0 -11 12 -15 51 -14 l51 0 -45 15 c-56 17 -57 17 -57 -1z"/>
<path d="M110 270 c0 -22 5 -40 10 -40 6 0 10 11 10 25 0 14 3 25 8 25 15 0 82 -62 82 -76 0 -8 5 -14 10 -14 6 0 10 -7 10 -14 0 -11 -14 -16 -47 -19 -43 -3 -42 -4 15 -5 l63 -2 -17 33 c-16 29 -104 125 -104 112 0 -3 -9 -1 -20 5 -18 10 -20 8 -20 -30z"/>
<path d="M4818 299 c-10 -5 -18 -7 -18 -4 0 13 -88 -82 -104 -112 l-17 -33 63 2 c57 1 58 2 16 5 -34 3 -48 8 -48 19 0 7 5 14 10 14 6 0 10 6 10 14 0 14 67 76 82 76 5 0 8 -11 8 -25 0 -14 5 -25 10 -25 6 0 10 18 10 40 0 22 -1 40 -2 40 -2 0 -11 -5 -20 -11z"/>
<path d="M135 210 l-40 -7 38 -2 c23 0 36 -5 32 -11 -3 -5 3 -10 15 -10 15 0 20 5 18 17 -4 20 -12 22 -63 13z"/>
<path d="M4756 212 c-13 -13 -4 -32 15 -32 11 0 17 5 14 10 -4 6 9 10 31 10 21 0 35 2 33 4 -8 6 -88 14 -93 8z"/>
<path d="M33 203 c-9 -3 -13 -29 -13 -79 l0 -74 80 0 c64 0 80 3 80 15 0 11 12 15 50 15 28 0 1038 0 2245 0 1207 0 2218 0 2245 0 38 0 50 -4 50 -15 0 -12 16 -15 80 -15 l80 0 0 74 c0 56 -4 75 -15 80 -15 6 -21 -9 -7 -18 4 -2 7 -17 6 -33 -3 -83 -2 -80 -38 -87 -49 -9 -86 8 -86 39 0 14 -4 25 -10 25 -5 0 -10 -7 -10 -15 0 -13 -262 -15 -2295 -15 -2033 0 -2295 2 -2295 15 0 8 -4 15 -10 15 -5 0 -10 -11 -10 -25 0 -31 -37 -48 -86 -39 -35 6 -35 6 -38 84 -1 14 3 31 8 38 11 15 6 21 -11 15z"/>
<path d="M113 166 c4 -11 1 -13 -11 -9 -14 5 -15 3 -4 -8 6 -7 12 -26 12 -41 0 -19 5 -28 16 -28 11 0 14 5 10 16 -3 9 -6 31 -6 50 0 19 -5 34 -11 34 -6 0 -9 -7 -6 -14z"/>
<path d="M4820 146 c0 -19 -3 -41 -6 -50 -4 -11 -1 -16 10 -16 11 0 16 9 16 28 0 15 6 34 13 41 10 11 9 13 -5 8 -12 -4 -15 -2 -11 9 3 7 0 14 -6 14 -6 0 -11 -15 -11 -34z"/>
</g>


</svg>