<?xml version="1.0" encoding="UTF-8"?>
<!DOCTYPE svg PUBLIC "-//W3C//DTD SVG 1.1//EN" "http://www.w3.org/Graphics/SVG/1.1/DTD/svg11.dtd">
<!-- Creator: CorelDRAW Home & Student 2018 -->
<svg xmlns="http://www.w3.org/2000/svg" xml:space="preserve" width="210mm" height="297mm" version="1.1" style="shape-rendering:geometricPrecision; text-rendering:geometricPrecision; image-rendering:optimizeQuality; fill-rule:evenodd; clip-rule:evenodd"
viewBox="0 0 21000 29700"
 xmlns:xlink="http://www.w3.org/1999/xlink">
 <defs>
  <style type="text/css">
    .fil0 {fill:#1A1A1A}
    .fil1 {fill:#666666}
  </style>
 </defs>
 <g id="Camada_x0020_1">
  <metadata id="CorelCorpID_0Corel-Layer"/>
  <path class="fil0" d="M7250.02 29424.93c458.07,-500 2185.21,-1284.62 3011.63,-1442.5 -284.63,-371.24 -1077.17,-1350.26 -1444.76,-1666.02 -216.49,-2292.15 -1156.49,-23718.48 -1566.87,-25817.1 -410.39,2098.62 -1350.39,23524.95 -1566.88,25817.1 -367.59,315.76 -1160.12,1294.78 -1444.76,1666.02 828.05,156.24 2571,924.93 3011.64,1442.5zm0 -23544.66c-280.12,1648.83 -500.62,19078.6 -667.04,20840.87 -296.43,254.65 -574.29,521.96 -819.89,810.49 550.69,152.1 1053.45,340.73 1488.93,557.35 435.49,-216.62 935.61,-397.09 1486.31,-549.19 -245.61,-288.53 -523.46,-555.85 -819.9,-810.49 -166.41,-1762.28 -388.3,-19200.2 -668.41,-20849.03z"/>
  <path class="fil1" d="M7250.02 4281.14c410.38,2098.62 720.5,20028.14 936.98,22320.28 367.6,315.76 706.57,651.09 991.21,1022.32 -748.36,206.7 -1401.09,467.87 -1928.19,799.07 -527.11,-331.2 -1179.83,-592.37 -1928.19,-799.07 284.63,-371.23 623.61,-706.56 991.2,-1022.32 216.49,-2292.14 526.6,-20221.66 936.99,-22320.28zm0 -2665.63c410.38,2098.62 1062.11,22570.4 1278.6,24862.54 367.59,315.76 867.33,915.4 1151.97,1286.63 -748.36,206.7 -1903.47,742.84 -2430.57,1074.04 -527.11,-331.2 -1682.21,-867.34 -2430.57,-1074.04 284.63,-371.23 784.38,-970.87 1151.97,-1286.63 216.49,-2292.14 868.21,-22763.92 1278.6,-24862.54z"/>
 </g>
</svg>
