<?xml version="1.0" encoding="UTF-8"?>
<!DOCTYPE svg PUBLIC "-//W3C//DTD SVG 1.1//EN" "http://www.w3.org/Graphics/SVG/1.1/DTD/svg11.dtd">
<!-- Creator: CorelDRAW Home & Student 2018 -->
<svg xmlns="http://www.w3.org/2000/svg" xml:space="preserve" width="210mm" height="297mm" version="1.1" style="shape-rendering:geometricPrecision; text-rendering:geometricPrecision; image-rendering:optimizeQuality; fill-rule:evenodd; clip-rule:evenodd"
viewBox="0 0 21000 29700"
 xmlns:xlink="http://www.w3.org/1999/xlink">
 <defs>
  <style type="text/css">
   <![CDATA[
    .fil0 {fill:#1A1A1A}
    .fil1 {fill:#666666}
   ]]>
  </style>
 </defs>
 <g id="Camada_x0020_1">
  <metadata id="CorelCorpID_0Corel-Layer"/>
  <path class="fil0" d="M15305.52 24710.75c440.63,-517.56 2183.59,-1286.25 3011.64,-1442.5 -284.64,-371.23 -1077.17,-1350.26 -1444.76,-1666.02 -216.49,-2292.14 -1156.49,-7987.48 -1566.88,-10086.1 -410.39,2098.62 -1350.39,7793.96 -1566.87,10086.1 -367.59,315.76 -1160.13,1294.79 -1444.77,1666.02 828.06,156.25 2571.01,924.94 3011.64,1442.5zm0 -7813.66c-280.12,1648.82 -500.62,3347.6 -667.03,5109.88 -296.44,254.64 -574.3,521.95 -819.9,810.48 550.7,152.11 1053.45,340.73 1488.94,557.35 435.49,-216.62 935.61,-397.09 1486.3,-549.19 -245.6,-288.53 -523.46,-555.84 -819.89,-810.48 -166.42,-1762.28 -388.3,-3469.22 -668.42,-5118.04z"/>
  <path class="fil1" d="M15305.52 15297.96c410.39,2098.62 720.5,4297.14 936.99,6589.28 367.59,315.76 706.57,651.1 991.2,1022.33 -748.36,206.7 -1401.09,467.86 -1928.19,799.06 -527.1,-331.2 -1179.83,-592.36 -1928.19,-799.06 284.64,-371.23 623.61,-706.57 991.2,-1022.33 216.49,-2292.14 526.6,-4490.66 936.99,-6589.28zm0 -2665.63c410.39,2098.62 1062.11,6839.4 1278.6,9131.54 367.59,315.76 867.33,915.4 1151.97,1286.63 -748.36,206.7 -1903.47,742.84 -2430.57,1074.04 -527.1,-331.2 -1682.21,-867.34 -2430.57,-1074.04 284.64,-371.23 784.38,-970.87 1151.97,-1286.63 216.49,-2292.14 868.21,-7032.92 1278.6,-9131.54z"/>
 </g>
</svg>
